<svg id="visual" viewBox="0 0 900 600" width="900" height="600" xmlns="http://www.w3.org/2000/svg" xmlns:xlink="http://www.w3.org/1999/xlink" version="1.1"><path d="M0 55L180 49L360 37L540 49L720 79L900 67L900 0L720 0L540 0L360 0L180 0L0 0Z" fill="#00cc8e"></path><path d="M0 91L180 103L360 79L540 109L720 151L900 97L900 65L720 77L540 47L360 35L180 47L0 53Z" fill="#00c18c"></path><path d="M0 121L180 145L360 109L540 181L720 175L900 181L900 95L720 149L540 107L360 77L180 101L0 89Z" fill="#00b789"></path><path d="M0 223L180 199L360 193L540 229L720 253L900 259L900 179L720 173L540 179L360 107L180 143L0 119Z" fill="#00ac86"></path><path d="M0 247L180 217L360 223L540 271L720 295L900 313L900 257L720 251L540 227L360 191L180 197L0 221Z" fill="#00a282"></path><path d="M0 403L180 337L360 313L540 397L720 373L900 463L900 311L720 293L540 269L360 221L180 215L0 245Z" fill="#00977e"></path><path d="M0 541L180 541L360 547L540 559L720 577L900 571L900 461L720 371L540 395L360 311L180 335L0 401Z" fill="#008d79"></path><path d="M0 601L180 601L360 601L540 601L720 601L900 601L900 569L720 575L540 557L360 545L180 539L0 539Z" fill="#038373"></path></svg>